# xmcd
#
# Track frame offsets: 
#        150
#        22314
#        40274
#        57022
#        59256
#        86598
#        112585
#        134688
#        154611
#        155913
#        180301
#        194783
#        217651
#        219458
#        251565
#        277985
#
# Disc length: 3738 seconds
#
# Revision: 1
# Processed by: cddbd v1.5.2PL0 Copyright (c) Steve Scherf et al.
# Submitted via: ExactAudioCopyFreeDBPlugin 1.0
#
DISCID=e10e9810
DTITLE=サウンドトラック - GAIA SYMPHONY
DYEAR=1900
DGENRE=Soundtrack
TTITLE0=Emiko Shiratori - THERE IS A SHIP
TTITLE1=Daniel Kobialka - GREEN LEEVES FANTASY
TTITLE2=Daniel Kobialka and David Grisman - BARBARA ALLEN
TTITLE3=Orca's Island - ORCA'S ISLAND
TTITLE4=Sylvia McNair and Daniel Kobialka - UNCHAINED MELODY
TTITLE5=Daniel Kobialka - THE RIDDLE SONG
TTITLE6=Na Pali - HOKULE'A HULA
TTITLE7=Kamal - SPREADING OUT ENERGY
TTITLE8=Hula Kahiko - HULA KAHIKO
TTITLE9=Hapa - LEI PIKAKE
TTITLE10=Anugama - SILENT JOY
TTITLE11=Sylvia McNair and Daniel Kobialka - CALM BEYOND THE STORM
TTITLE12=null - DANCE OF THE BEAR CLAN
TTITLE13=Terry Oldfield - FOOTRINTS OF BUDDHA'S CHILDREN
TTITLE14=Susan Osborn - GRADUATION
TTITLE15=Bob Sam - STORY TELLING
EXTD=
EXTT0=
EXTT1=
EXTT2=
EXTT3=
EXTT4=
EXTT5=
EXTT6=
EXTT7=
EXTT8=
EXTT9=
EXTT10=
EXTT11=
EXTT12=
EXTT13=
EXTT14=
EXTT15=
PLAYORDER=
